<svg width="27" height="27" viewBox="0 0 27 27" fill="none" xmlns="http://www.w3.org/2000/svg">
<path fill-rule="evenodd" clip-rule="evenodd" d="M10.9849 4.65907C11.1813 4.86106 11.434 5.18245 11.6743 5.48837L11.7302 5.55956L11.7302 5.55958C11.9714 5.86673 12.2292 6.19518 12.4926 6.50598L12.5002 6.51491V0.9375C12.5002 0.419733 12.9199 0 13.4377 0C13.9554 0 14.3752 0.419733 14.3752 0.9375V6.51491L14.3827 6.50598C14.6461 6.19518 14.904 5.86672 15.1451 5.55956L15.201 5.48837C15.4413 5.18245 15.6941 4.86106 15.8904 4.65907C16.2513 4.28779 16.8448 4.27936 17.2161 4.64024C17.5874 5.00111 17.5958 5.59465 17.2349 5.96593C17.124 6.08 16.942 6.30727 16.6755 6.64655L16.6167 6.72144L16.6167 6.7215C16.3791 7.02417 16.1004 7.37923 15.8132 7.71812C15.5055 8.08131 15.161 8.45855 14.8167 8.75183C14.6441 8.8988 14.4496 9.04376 14.2404 9.15573C14.0386 9.26373 13.7605 9.375 13.4377 9.375C13.1148 9.375 12.8367 9.26373 12.6349 9.15573C12.4257 9.04376 12.2312 8.8988 12.0586 8.75183C11.7143 8.45855 11.3698 8.08131 11.0621 7.71812C10.7749 7.37922 10.4962 7.02415 10.2586 6.72147L10.2586 6.72145L10.1998 6.64655C9.9333 6.30727 9.75127 6.08 9.64039 5.96593C9.27952 5.59465 9.28795 5.00111 9.65923 4.64024C10.0305 4.27936 10.624 4.28779 10.9849 4.65907ZM21.3581 6.078L21.3683 6.07311C21.3806 6.06729 21.4014 6.05761 21.4298 6.04494C21.4867 6.01956 21.5736 5.98257 21.684 5.94086C21.907 5.85656 22.214 5.75742 22.5557 5.6928C23.278 5.55624 23.9417 5.60997 24.395 5.98111L24.3994 5.98468C24.5399 6.09824 24.7665 6.38811 24.8452 6.55709C24.9823 6.85147 25.0002 7.12401 25.0002 8.19801V21.9592C25.0002 22.5113 24.3664 23.0551 23.6513 22.8877C22.4288 22.6015 21.089 22.4448 19.6877 22.4448C17.1742 22.4448 14.8446 22.9494 13.0338 23.8137C11.5132 24.5395 9.46692 24.9998 7.18766 24.9998C5.92417 24.9998 4.72801 24.8582 3.65133 24.6062C2.8914 24.4283 2.72903 24.3772 2.47588 24.1725C2.33546 24.059 2.10885 23.7691 2.03016 23.6001C1.89306 23.3057 1.87516 23.0332 1.87516 21.9592V8.19801C1.87516 7.64588 2.50887 7.1021 3.22398 7.2695C4.25408 7.51063 5.3671 7.65978 6.52957 7.70084C7.04701 7.71911 7.4813 7.31445 7.49957 6.79701C7.51785 6.27956 7.11319 5.84528 6.59574 5.827C5.54989 5.79007 4.55806 5.6561 3.65133 5.44385C1.96652 5.04947 0.000155645 6.23391 0.000155645 8.19801V21.9592L7.66689e-05 22.0916C-0.000718606 22.9757 -0.00135145 23.6793 0.330444 24.3917C0.52853 24.817 0.932265 25.3356 1.2969 25.6305C1.9079 26.1246 2.46689 26.2551 3.15169 26.415L3.15172 26.415L3.22398 26.4319C4.44651 26.718 5.78634 26.8748 7.18766 26.8748C9.70107 26.8748 12.0307 26.3702 13.8415 25.5058C15.3621 24.78 17.4084 24.3198 19.6877 24.3198C20.9511 24.3198 22.1473 24.4613 23.224 24.7134C24.9088 25.1077 26.8752 23.9233 26.8752 21.9592V8.19801L26.8752 8.06561C26.876 7.18155 26.8767 6.47795 26.5449 5.7655C26.3472 5.34102 25.9447 4.82368 25.5806 4.52852C24.4831 3.63148 23.1224 3.67744 22.2074 3.85045C21.7302 3.94067 21.3153 4.07576 21.021 4.18697C20.8728 4.24301 20.7523 4.2941 20.6664 4.33236C20.6235 4.35151 20.589 4.36754 20.5639 4.37947L20.5333 4.3942L20.5234 4.39906L20.5198 4.40083L20.5184 4.40154C20.5181 4.40168 20.5172 4.40213 20.9355 5.23584L20.5172 4.40213C20.0544 4.63434 19.8675 5.19773 20.0997 5.66051C20.3318 6.12312 20.8954 6.30982 21.3581 6.078ZM13.4377 13.125C12.2295 13.125 11.2502 14.1044 11.2502 15.3125C11.2502 16.5206 12.2295 17.5 13.4377 17.5C14.6458 17.5 15.6252 16.5206 15.6252 15.3125C15.6252 14.1044 14.6458 13.125 13.4377 13.125ZM9.37516 15.3125C9.37516 13.0688 11.194 11.25 13.4377 11.25C15.6813 11.25 17.5002 13.0688 17.5002 15.3125C17.5002 17.5562 15.6813 19.375 13.4377 19.375C11.194 19.375 9.37516 17.5562 9.37516 15.3125ZM6.56266 16.5625C6.56266 15.8721 6.00301 15.3125 5.31266 15.3125C4.6223 15.3125 4.06266 15.8721 4.06266 16.5625V16.5737C4.06266 17.2641 4.6223 17.8237 5.31266 17.8237C6.00301 17.8237 6.56266 17.2641 6.56266 16.5737V16.5625ZM21.5627 12.8027C22.253 12.8027 22.8127 13.3624 22.8127 14.0527V14.064C22.8127 14.7543 22.253 15.314 21.5627 15.314C20.8723 15.314 20.3127 14.7543 20.3127 14.064V14.0527C20.3127 13.3624 20.8723 12.8027 21.5627 12.8027Z" fill="#4A4A4A" fill-opacity="0.8"/>
</svg>
