<svg width="27" height="27" viewBox="0 0 27 27" fill="none" xmlns="http://www.w3.org/2000/svg">
<path d="M13.4375 0C14.3566 0 15.2552 0.0921922 16.124 0.268555C16.6314 0.371553 16.9594 0.86665 16.8564 1.37402C16.7534 1.88144 16.2584 2.20945 15.751 2.10645C15.0043 1.95486 14.2306 1.875 13.4375 1.875C7.05172 1.875 1.87503 7.05173 1.875 13.4375C1.875 19.8232 7.05171 25 13.4375 25C19.8232 25 25 19.8232 25 13.4375C25 12.6444 24.9201 11.8708 24.7686 11.124C24.6656 10.6166 24.9936 10.1215 25.501 10.0186C26.0084 9.91562 26.5034 10.2436 26.6064 10.751C26.7827 11.6196 26.875 12.5184 26.875 13.4375C26.875 20.8588 20.8588 26.875 13.4375 26.875C6.01617 26.875 0 20.8588 0 13.4375C2.98419e-05 6.0162 6.01619 0 13.4375 0ZM13.4375 7.5C13.9552 7.5 14.375 7.91976 14.375 8.4375V8.85547C15.3608 9.08127 16.2312 9.66312 16.6436 10.5381C16.864 11.0062 16.6632 11.5643 16.1953 11.7852C15.727 12.0059 15.168 11.8053 14.9473 11.3369C14.8005 11.0259 14.2727 10.625 13.4375 10.625C12.9305 10.625 12.5075 10.7801 12.2324 10.9863C11.9576 11.1924 11.875 11.406 11.875 11.5625C11.875 11.719 11.9576 11.9326 12.2324 12.1387C12.5075 12.3449 12.9305 12.5 13.4375 12.5C14.311 12.5 15.1379 12.7642 15.7676 13.2363C16.3976 13.7088 16.875 14.4335 16.875 15.3125C16.875 16.1915 16.3976 16.9162 15.7676 17.3887C15.3695 17.6871 14.8926 17.9024 14.375 18.0205V18.4375C14.375 18.9553 13.9553 19.375 13.4375 19.375C12.9197 19.375 12.5 18.9553 12.5 18.4375V18.0195C11.5142 17.7937 10.6438 17.2119 10.2314 16.3369C10.0111 15.8688 10.2118 15.3107 10.6797 15.0898C11.148 14.8691 11.707 15.0697 11.9277 15.5381C12.0744 15.8491 12.6022 16.25 13.4375 16.25C13.9445 16.25 14.3675 16.0949 14.6426 15.8887C14.9174 15.6826 15 15.469 15 15.3125C15 15.156 14.9174 14.9424 14.6426 14.7363C14.3675 14.5301 13.9444 14.375 13.4375 14.375C12.564 14.375 11.7371 14.1108 11.1074 13.6387C10.4774 13.1662 10 12.4415 10 11.5625C10 10.6835 10.4774 9.95882 11.1074 9.48633C11.5055 9.18787 11.9824 8.97258 12.5 8.85449V8.4375C12.5 7.91976 12.9198 7.5 13.4375 7.5ZM24.2969 0.18457L24.3203 0.186523C24.9773 0.233996 25.5999 0.455469 26.0605 0.924805C26.5224 1.3954 26.7206 2.01198 26.7246 2.65137L26.8721 6.5C26.8916 7.01718 26.4879 7.45288 25.9707 7.47266C25.4534 7.49234 25.0179 7.08857 24.998 6.57129L24.874 3.32227L20.3486 7.85059C19.9826 8.2168 19.3887 8.21656 19.0225 7.85059C18.6562 7.48458 18.6555 6.89064 19.0215 6.52441L23.5186 2.02539L20.3037 1.87402C19.7865 1.84971 19.3868 1.41074 19.4111 0.893555C19.4354 0.376413 19.8745 -0.0232438 20.3916 0.000976562L24.2969 0.18457Z" fill="#4A4A4A" fill-opacity="0.8"/>
</svg>
