<svg width="15" height="15" viewBox="0 0 15 15" fill="none" xmlns="http://www.w3.org/2000/svg">
<path d="M6.82422 0C7.23825 -0.000533509 7.57445 0.334941 7.5752 0.749023C7.57574 1.16307 7.24026 1.49925 6.82617 1.5C5.44538 1.50249 4.46427 1.52191 3.71875 1.64258C2.99509 1.75971 2.57667 1.96044 2.26855 2.26855C1.93697 2.60023 1.72955 3.06073 1.61719 3.89648C1.50191 4.75397 1.5 5.88782 1.5 7.5C1.5 9.11213 1.50191 10.2461 1.61719 11.1035C1.72958 11.9393 1.9369 12.3998 2.26855 12.7314C2.60021 13.0631 3.06074 13.2704 3.89648 13.3828C4.75394 13.4981 5.88787 13.5 7.5 13.5C9.11218 13.5 10.246 13.4981 11.1035 13.3828C11.9393 13.2704 12.3998 13.063 12.7314 12.7314C13.0396 12.4233 13.2403 12.0049 13.3574 11.2812C13.4781 10.5357 13.4975 9.55462 13.5 8.17383C13.5007 7.75974 13.8369 7.42426 14.251 7.4248C14.6651 7.42555 15.0005 7.76175 15 8.17578C14.9976 9.53181 14.981 10.6362 14.8379 11.5205C14.6912 12.4268 14.3999 13.1841 13.792 13.792C13.1352 14.4487 12.3058 14.7354 11.3037 14.8701C10.3346 15.0004 9.09952 15 7.55566 15H7.44434C5.90085 15 4.66622 15.0003 3.69727 14.8701C2.69501 14.7354 1.86486 14.4488 1.20801 13.792C0.55116 13.1351 0.264632 12.305 0.129883 11.3027C-0.00033785 10.3338 -1.87702e-05 9.09915 0 7.55566V7.44434C-1.84178e-05 5.90047 -0.00040701 4.66537 0.129883 3.69629C0.264626 2.69419 0.551327 1.8648 1.20801 1.20801C1.81592 0.600098 2.57316 0.308812 3.47949 0.162109C4.36383 0.0190164 5.46819 0.00244204 6.82422 0ZM10.9707 0.0449219C11.6295 0.00625777 12.9419 -0.0500711 13.7266 0.0888672C14.049 0.145964 14.3304 0.301122 14.54 0.524414L14.5459 0.53125C14.7315 0.73167 14.8602 0.98602 14.9111 1.27344C15.0499 2.05792 14.9937 3.37047 14.9551 4.0293C14.904 4.89889 13.8626 5.25516 13.2734 4.66602L12.3506 3.74316L10.2988 5.7793C10.2841 5.79388 10.2685 5.80718 10.2529 5.82031L7.2793 8.78125C6.98582 9.07343 6.51101 9.07264 6.21875 8.7793C5.92657 8.48582 5.92736 8.01101 6.2207 7.71875L9.11133 4.84082C9.1426 4.78978 9.18121 4.74131 9.22559 4.69727L11.2725 2.66504L10.334 1.72656C9.74486 1.13745 10.1011 0.0960687 10.9707 0.0449219Z" fill="white"/>
</svg>
