<svg width="17" height="17" viewBox="0 0 17 17" fill="none" xmlns="http://www.w3.org/2000/svg">
<path d="M8.11523 16.1202C11.6567 15.9997 14.869 13.6714 15.8398 10.1583C17.0328 5.84095 14.3772 1.4258 9.9541 0.276474C5.80534 -0.801479 1.53265 1.36295 0.0390625 5.19933C-0.0261278 5.36689 -0.00818974 5.55577 0.0888672 5.70714C0.18593 5.85841 0.349883 5.95427 0.529297 5.96495L2.46387 6.07921C2.77398 6.09758 3.04022 5.861 3.05859 5.55089C3.07695 5.24079 2.84038 4.97453 2.53027 4.95616L1.41504 4.88976C2.92075 2.05088 6.32797 0.496894 9.6709 1.36534C13.5169 2.36469 15.7732 6.17671 14.7559 9.85851C13.9155 12.8996 11.0973 14.9383 7.96973 14.9991C7.94659 14.9988 7.92347 14.9988 7.90039 14.9982C7.58984 14.9901 7.33134 15.2355 7.32324 15.546C7.31538 15.8564 7.56068 16.1141 7.87109 16.1222C7.89191 16.1227 7.91274 16.1228 7.93359 16.1232C7.94138 16.1234 7.94917 16.1252 7.95703 16.1251C7.96767 16.1249 7.97862 16.1243 7.98926 16.1241C8.01365 16.1244 8.03806 16.1251 8.0625 16.1251C8.08027 16.1251 8.09788 16.1218 8.11523 16.1202ZM7.99316 11.6368C8.30369 11.6367 8.55563 11.3849 8.55566 11.0743V10.9337C8.65399 10.9143 8.75558 10.8894 8.85938 10.8575C9.62102 10.6237 9.99996 10.0452 10.0908 9.45909C10.1743 8.92023 10.0221 8.32159 9.67188 7.95518C9.34538 7.6136 8.98619 7.50478 8.64063 7.47081C8.50115 7.4571 8.3551 7.45516 8.22754 7.45323C8.21343 7.45302 8.19917 7.45248 8.18555 7.45226C8.04021 7.44989 7.90087 7.44697 7.75195 7.43175C7.45376 7.40121 7.29773 7.31224 7.22168 7.24327C7.15036 7.17855 7.1189 7.10437 7.11426 7.02061C7.10405 6.83205 7.23977 6.54493 7.56543 6.39757C7.92421 6.23529 8.17619 6.27779 8.36035 6.35753C8.56996 6.44837 8.73088 6.60553 8.85742 6.73839C9.07166 6.96336 9.42835 6.97216 9.65332 6.75792C9.87784 6.54371 9.88674 6.18785 9.67285 5.963C9.53589 5.81918 9.24104 5.51339 8.80664 5.3253C8.72656 5.29064 8.64292 5.26014 8.55566 5.23546V5.07433C8.55566 4.76374 8.30372 4.51195 7.99316 4.51183C7.6825 4.51183 7.43066 4.76367 7.43066 5.07433V5.25011C7.32373 5.28158 7.21422 5.32265 7.10254 5.37315C6.4076 5.68748 5.952 6.37392 5.99121 7.08311C6.01144 7.44825 6.16515 7.80457 6.46582 8.07726C6.76172 8.34553 7.16413 8.50245 7.6377 8.55089C7.8377 8.57133 8.0177 8.57483 8.16699 8.57726C8.17885 8.57745 8.19084 8.57805 8.20215 8.57823C8.34106 8.58044 8.43971 8.58204 8.53027 8.59093C8.69086 8.60671 8.76829 8.63829 8.8584 8.73253C8.92485 8.80206 9.01929 9.02835 8.97949 9.28624C8.94688 9.49682 8.83218 9.68831 8.5293 9.78136C8.34904 9.83665 8.18416 9.85947 8.03613 9.85948C8.02195 9.8584 8.00762 9.85753 7.99316 9.85753C7.98678 9.85753 7.97997 9.85732 7.97363 9.85753C7.51063 9.83777 7.22128 9.60287 7.13184 9.52159C6.902 9.31258 6.54592 9.32984 6.33691 9.55968C6.12818 9.7894 6.1446 10.1446 6.37402 10.3536C6.52027 10.4866 6.88574 10.7761 7.43066 10.9122V11.0743C7.4307 11.385 7.68252 11.6368 7.99316 11.6368ZM0.575195 8.05186C0.88578 8.04574 1.13305 7.7892 1.12695 7.47862C1.12587 7.42343 1.125 7.36806 1.125 7.31261C1.125 7.00195 0.87316 6.75011 0.5625 6.75011C0.251957 6.75024 0 7.00203 0 7.31261C4.19949e-07 7.37546 0.000719637 7.43851 0.00195313 7.50108C0.00824891 7.8114 0.264879 8.05777 0.575195 8.05186ZM1.12012 10.461C1.41698 10.3695 1.58373 10.0538 1.49219 9.75694C1.45985 9.65206 1.42866 9.54633 1.40039 9.43956C1.32084 9.13931 1.01317 8.96066 0.712891 9.04015C0.412742 9.11976 0.234001 9.42742 0.313477 9.72765C0.34562 9.84906 0.3802 9.96966 0.416992 10.089C0.508614 10.3857 0.823335 10.5525 1.12012 10.461ZM1.53906 12.462C1.71097 12.7207 2.06062 12.791 2.31934 12.6192C2.57807 12.4473 2.64851 12.0977 2.47656 11.839C2.41589 11.7477 2.35691 11.6549 2.2998 11.5607C2.13884 11.295 1.79304 11.2103 1.52734 11.3712C1.26164 11.5322 1.17692 11.878 1.33789 12.1437C1.40308 12.2513 1.46973 12.3577 1.53906 12.462ZM3.31152 14.4112C3.5535 14.6061 3.90771 14.5683 4.10254 14.3263C4.29729 14.0843 4.25855 13.7301 4.0166 13.5353C3.93186 13.467 3.84852 13.3967 3.7666 13.3243C3.53381 13.1187 3.17833 13.1405 2.97266 13.3732C2.76709 13.6059 2.78888 13.9614 3.02148 14.1671C3.11623 14.2508 3.21328 14.3321 3.31152 14.4112ZM5.62402 15.7071C5.91707 15.8101 6.23778 15.6564 6.34082 15.3634C6.44385 15.0704 6.29 14.7497 5.99707 14.6466C5.89494 14.6107 5.79351 14.5714 5.69336 14.5304C5.40599 14.4128 5.07773 14.5507 4.95996 14.838C4.84226 15.1253 4.97947 15.4534 5.2666 15.5714C5.38423 15.6196 5.50383 15.6649 5.62402 15.7071Z" fill="#4A4A4A"/>
</svg>
